<svg id="Layer_1" data-name="Layer 1" xmlns="http://www.w3.org/2000/svg" viewBox="0 0 24 24"><defs><style>.cls-1{fill:#d96360;}</style></defs><title>Artboard 1 copy 4</title><path class="cls-1" d="M10.88,11.16l.07.06h0l1,.94,5.13-4.6a1.39,1.39,0,0,0-.6-.14h-9a1.39,1.39,0,0,0-.6.14Z"/><path class="cls-1" d="M14.08,11.5l-1.77,1.59a.42.42,0,0,1-.3.12.44.44,0,0,1-.29-.11L10,11.53,6.2,8.17A1.43,1.43,0,0,0,6,8.9v6.2a1.47,1.47,0,0,0,1.47,1.47h9.06A1.47,1.47,0,0,0,18,15.1V8.9a1.43,1.43,0,0,0-.2-.73Z"/></svg>