<svg id="Capa_1" data-name="Capa 1" xmlns="http://www.w3.org/2000/svg" viewBox="0 0 24 24"><path d="M16.13,8.28h-.32V7.55a1.87,1.87,0,0,0-1.87-1.86H10A1.87,1.87,0,0,0,8.16,7.55v.73H7.87A1.87,1.87,0,0,0,6,10.14v3A1.87,1.87,0,0,0,7.87,15h.29v2.36a.93.93,0,0,0,.93.93h5.79a.93.93,0,0,0,.93-.93V15h.32A1.87,1.87,0,0,0,18,13.15v-3a1.87,1.87,0,0,0-1.87-1.86ZM8.87,7.55A1.16,1.16,0,0,1,10,6.39h3.92A1.16,1.16,0,0,1,15.1,7.55v.73H8.87Zm6.23,9.84a.22.22,0,0,1-.22.22H9.09a.22.22,0,0,1-.22-.22V13.48H15.1Zm2.19-4.24a1.16,1.16,0,0,1-1.16,1.16h-.32v-.83h.47a.35.35,0,0,0,.35-.35.35.35,0,0,0-.35-.35H7.64a.35.35,0,0,0-.35.35.34.34,0,0,0,.35.35h.52v.83H7.87a1.16,1.16,0,0,1-1.16-1.16v-3A1.16,1.16,0,0,1,7.87,9h8.26a1.16,1.16,0,0,1,1.16,1.16Zm0,0"/><path d="M9.72,15.22h4.5a.35.35,0,0,0,0-.7H9.72a.34.34,0,0,0-.35.35.35.35,0,0,0,.35.35Zm0,0"/><path d="M14.25,16H9.75a.36.36,0,1,0,0,.71h4.5a.36.36,0,0,0,0-.71Zm0,0"/><path d="M16.13,9.66h-.72a.36.36,0,0,0,0,.71h.72a.36.36,0,0,0,0-.71Zm0,0"/></svg>
