<svg id="Layer_1" data-name="Layer 1" xmlns="http://www.w3.org/2000/svg" viewBox="0 0 24 24"><defs><style>.cls-1{fill:#010101;}</style></defs><title>Artboard 1 copy 6</title><path class="cls-1" d="M17.51,9.44v4.14a1.1,1.1,0,0,1-1,1.21H9.05V15a1.32,1.32,0,0,0,1.31,1.14H16l2.15,1.26-.32-1.26h.09a1,1,0,0,0,1-1c0-.05,0-3.93,0-4.71s-.21-1-.74-1Z"/><path class="cls-1" d="M15.29,6.6H6.77c-.75,0-1.62.66-1.62,1.31v5.16c0,.59.73,1,1.44,1.09l-.46,1.73,2.93-1.72h6.23c.75,0,1.45-.46,1.45-1.1V7.91A1.47,1.47,0,0,0,15.29,6.6ZM8.07,11a.77.77,0,1,1,.77-.77.76.76,0,0,1-.77.77Zm2.87,0a.77.77,0,1,1,.77-.77A.76.76,0,0,1,10.94,11Zm2.88,0a.77.77,0,1,1,.77-.77A.79.79,0,0,1,13.82,11Z"/></svg>