<svg id="Layer_1" data-name="Layer 1" xmlns="http://www.w3.org/2000/svg" viewBox="0 0 24 24"><defs><style>.cls-1{fill:#1fa5d4;fill-rule:evenodd;}</style></defs><title>Artboard 1 copy</title><path class="cls-1" d="M9.54,14.92A2.79,2.79,0,0,1,7,13a2.81,2.81,0,0,0,1.19,0l0,0a2.75,2.75,0,0,1-1.8-1.28A2.62,2.62,0,0,1,6,10.17a2.71,2.71,0,0,0,1.24.34A2.78,2.78,0,0,1,6.06,8.82a2.72,2.72,0,0,1,.3-2A8,8,0,0,0,12.1,9.72c0-.11,0-.21,0-.31a2.78,2.78,0,0,1,.41-1.82,2.78,2.78,0,0,1,4.32-.48.14.14,0,0,0,.15,0,5.6,5.6,0,0,0,1.62-.62l0,0h0A2.86,2.86,0,0,1,17.42,8,5.5,5.5,0,0,0,19,7.61h0L18.66,8a5.8,5.8,0,0,1-1,1,.1.1,0,0,0,0,.09,8.44,8.44,0,0,1-.05,1.23,8.22,8.22,0,0,1-.72,2.48A8,8,0,0,1,15.33,15a7.44,7.44,0,0,1-3.83,2.14,9,9,0,0,1-1.55.18,7.78,7.78,0,0,1-4.45-1.2l-.07,0a5.64,5.64,0,0,0,2.79-.38A5.49,5.49,0,0,0,9.54,14.92Z"/></svg>