<svg id="Layer_1" data-name="Layer 1" xmlns="http://www.w3.org/2000/svg" viewBox="0 0 24 24"><defs><style>.cls-1{fill:#159045;fill-rule:evenodd;}</style></defs><title>Artboard 1 copy 2</title><path class="cls-1" d="M5.69,18.35c.07-.28.13-.52.2-.77.22-.79.44-1.57.64-2.36a.55.55,0,0,0,0-.38A6.53,6.53,0,1,1,9.3,17.57a.69.69,0,0,0-.4,0C7.18,18,6,18.29,5.69,18.35ZM7.2,16.86,9,16.38a.53.53,0,0,1,.44.06,5.28,5.28,0,0,0,3.6.68,5.43,5.43,0,1,0-5.6-2.74,1.11,1.11,0,0,1,.12,1C7.44,15.87,7.34,16.34,7.2,16.86Z"/><path class="cls-1" d="M13.92,14.87a6.33,6.33,0,0,1-4.68-3.45,2,2,0,0,1,.3-2.5.93.93,0,0,1,.84-.13c.07,0,.14.12.18.2.18.42.36.84.52,1.27.09.23-.07.44-.4.82a.29.29,0,0,0,0,.37,4.48,4.48,0,0,0,2.26,1.94.27.27,0,0,0,.34-.1c.52-.63.57-.81.84-.68,1.31.62,1.42.65,1.42.8A1.43,1.43,0,0,1,13.92,14.87Z"/></svg>